<svg width="18" height="18" viewBox="0 0 18 18" fill="none" xmlns="http://www.w3.org/2000/svg">
<path d="M10.9687 1.575H7.03123C3.43123 1.575 0.506226 4.41563 0.506226 7.90313C0.506226 11.3906 2.75623 13.8375 8.26873 16.3125C8.40935 16.3688 8.52185 16.3969 8.66248 16.3969C8.85935 16.3969 9.0281 16.3406 9.19685 16.2281C9.4781 16.0594 9.64685 15.75 9.64685 15.4125V14.2031H10.9687C14.5687 14.2031 17.5219 11.3625 17.5219 7.875C17.5219 4.3875 14.5687 1.575 10.9687 1.575ZM10.9687 12.9938H9.33748C8.8031 12.9938 8.3531 13.4438 8.3531 13.9781V15.0188C3.59998 12.825 1.74373 10.8 1.74373 7.93125C1.74373 5.14688 4.10623 2.86875 7.03123 2.86875H10.9687C13.8656 2.86875 16.2562 5.14688 16.2562 7.93125C16.2562 10.7156 13.8656 12.9938 10.9687 12.9938Z" fill="#64748B"/>
<path d="M5.42812 7.28437C5.0625 7.28437 4.78125 7.56562 4.78125 7.93125C4.78125 8.29687 5.0625 8.57812 5.42812 8.57812C5.79375 8.57812 6.075 8.29687 6.075 7.93125C6.075 7.56562 5.79375 7.28437 5.42812 7.28437Z" fill="#64748B"/>
<path d="M9.00002 7.28437C8.6344 7.28437 8.35315 7.56562 8.35315 7.93125C8.35315 8.29687 8.6344 8.57812 9.00002 8.57812C9.33752 8.57812 9.6469 8.29687 9.6469 7.93125C9.6469 7.56562 9.33752 7.28437 9.00002 7.28437Z" fill="#64748B"/>
<path d="M12.5718 7.28437C12.2062 7.28437 11.9249 7.56562 11.9249 7.93125C11.9249 8.29687 12.2062 8.57812 12.5718 8.57812C12.9374 8.57812 13.2187 8.29687 13.2187 7.93125C13.2187 7.56562 12.9093 7.28437 12.5718 7.28437Z" fill="#64748B"/>
</svg>
