<svg width="166" height="46" viewBox="0 0 166 46" fill="none" xmlns="http://www.w3.org/2000/svg">
<path d="M21.08 4C17.44 4 14.5 6.90426 14.5 10.5C14.5 14.0681 17.44 16.9723 21.052 17C20.156 16.9723 19.456 16.2532 19.456 15.3681C19.456 14.483 20.184 13.7362 21.108 13.7362C25.028 13.7362 33.736 13.7362 37.572 13.7362C40.288 13.7362 42.5 11.5511 42.5 8.86812C42.5 6.1851 40.288 4 37.572 4L21.08 4Z" fill="white"/>
<path opacity="0.9" d="M13.08 17C9.44 17 6.5 19.9043 6.5 23.5C6.5 27.0681 9.44 29.9723 13.052 30C12.156 29.9723 11.456 29.2532 11.456 28.3681C11.456 27.483 12.184 26.7362 13.108 26.7362C17.028 26.7362 25.736 26.7362 29.572 26.7362C32.288 26.7362 34.5 24.5511 34.5 21.8681C34.5 19.1851 32.288 17 29.572 17L13.08 17Z" fill="white"/>
<path opacity="0.8" d="M7.55 30C3.65 30 0.5 33.1277 0.5 37C0.5 40.8426 3.65 43.9702 7.51998 44C6.55999 43.9702 5.81 43.1958 5.81 42.2425C5.81 41.2894 6.59002 40.4851 7.58003 40.4851C11.78 40.4851 21.11 40.4851 25.22 40.4851C28.13 40.4851 30.5 38.1319 30.5 35.2426C30.5 32.3532 28.13 30 25.22 30L7.55 30Z" fill="white"/>
<path d="M59.168 30.4243H54.104V15.5203H59.168V30.4243ZM68.9536 18.6403C71.1936 18.6403 72.3136 19.7283 72.3136 21.9043V30.4243H67.2496V22.9843C67.2496 22.7283 67.1136 22.6003 66.8416 22.6003C66.5856 22.6003 66.2976 22.6803 65.9776 22.8403V30.4243H60.9856V18.9283H65.5216L65.6656 19.6723C66.6736 18.9843 67.7696 18.6403 68.9536 18.6403ZM85.0391 18.9283L82.2791 30.4243H75.5351L72.7511 18.9283H77.9591L78.9191 25.0723H79.0871L80.1431 18.9283H85.0391ZM85.3053 24.6403C85.3053 22.5283 85.7693 21.0003 86.6973 20.0563C87.6413 19.1123 89.1053 18.6403 91.0893 18.6403C93.0893 18.6403 94.5453 19.1043 95.4573 20.0323C96.3693 20.9603 96.8253 22.4883 96.8253 24.6163C96.8253 26.7283 96.3773 28.2643 95.4813 29.2243C94.6013 30.1843 93.1453 30.6643 91.1133 30.6643C89.0973 30.6643 87.6253 30.1843 86.6973 29.2243C85.7693 28.2643 85.3053 26.7363 85.3053 24.6403ZM91.7133 22.6003C91.6333 22.3123 91.4253 22.1683 91.0893 22.1683C90.7533 22.1683 90.5373 22.3123 90.4413 22.6003C90.3613 22.8723 90.3213 23.4643 90.3213 24.3763V24.9523C90.3213 25.9763 90.3613 26.6403 90.4413 26.9443C90.5373 27.2323 90.7533 27.3763 91.0893 27.3763C91.4253 27.3763 91.6333 27.2323 91.7133 26.9443C91.8093 26.6403 91.8573 26.0163 91.8573 25.0723V24.4003C91.8573 23.4723 91.8093 22.8723 91.7133 22.6003ZM103.06 30.4243H98.0677V19.1683H103.06V30.4243ZM97.9717 16.7443C97.9717 15.3843 98.8277 14.7043 100.54 14.7043C102.252 14.7043 103.108 15.3843 103.108 16.7443C103.108 17.4483 102.892 17.9523 102.46 18.2563C102.044 18.5603 101.404 18.7123 100.54 18.7123C99.6757 18.7123 99.0277 18.5683 98.5957 18.2803C98.1797 17.9763 97.9717 17.4643 97.9717 16.7443ZM110.338 22.4083C109.906 22.4083 109.618 22.6003 109.474 22.9843C109.346 23.3683 109.282 23.9603 109.282 24.7603C109.282 25.5603 109.346 26.1443 109.474 26.5123C109.602 26.8643 109.906 27.0403 110.386 27.0403C110.866 27.0403 111.626 26.9363 112.666 26.7283L113.194 30.0643C111.786 30.4643 110.602 30.6643 109.642 30.6643C107.866 30.6643 106.522 30.1523 105.61 29.1283C104.714 28.1043 104.266 26.6723 104.266 24.8323C104.266 22.9923 104.73 21.5043 105.658 20.3683C106.586 19.2163 107.938 18.6403 109.714 18.6403C111.01 18.6403 112.234 18.8563 113.386 19.2883L112.882 23.0803C111.634 22.6323 110.786 22.4083 110.338 22.4083ZM119.637 22.5043C119.301 22.5043 119.069 22.6083 118.941 22.8163C118.813 23.0243 118.749 23.3443 118.749 23.7763H120.477V23.3923C120.477 22.8003 120.197 22.5043 119.637 22.5043ZM113.805 24.6403C113.805 22.7363 114.301 21.2643 115.293 20.2243C116.301 19.1683 117.773 18.6403 119.709 18.6403C121.661 18.6403 123.037 19.0403 123.837 19.8403C124.653 20.6403 125.061 21.7843 125.061 23.2723C125.061 23.8643 124.997 24.7603 124.869 25.9603H118.845C118.909 26.8243 119.437 27.2563 120.429 27.2563C120.893 27.2563 122.109 27.0883 124.077 26.7523L124.485 29.9923C122.789 30.4403 121.205 30.6643 119.733 30.6643C117.813 30.6643 116.341 30.1363 115.317 29.0803C114.309 28.0243 113.805 26.5443 113.805 24.6403ZM139.221 30.4243H134.157V25.1683H131.565V30.4243H126.429V15.5203H131.565V21.0883H134.157V15.5203H139.221V30.4243ZM144.316 30.6643C142.044 30.6643 140.908 29.5763 140.908 27.4003V18.9283H145.948V26.4643C145.948 26.7203 146.06 26.8483 146.284 26.8483C146.524 26.8483 146.836 26.7683 147.22 26.6083V18.9283H152.236V30.3763H147.436V29.7763H147.292C146.364 30.3683 145.372 30.6643 144.316 30.6643ZM165.293 24.4003C165.293 25.4563 165.229 26.3443 165.101 27.0643C164.989 27.7683 164.773 28.4083 164.453 28.9843C163.829 30.1043 162.589 30.6643 160.733 30.6643C159.581 30.6643 158.661 30.4163 157.973 29.9203L157.781 30.4243H153.845V15.0403H158.669V19.1203C159.341 18.8003 160.077 18.6403 160.877 18.6403C162.653 18.6403 163.829 19.0883 164.405 19.9843C164.997 20.8643 165.293 22.3363 165.293 24.4003ZM159.557 27.2563C159.893 27.2563 160.101 27.0803 160.181 26.7283C160.261 26.3603 160.301 25.7283 160.301 24.8323C160.301 23.9203 160.253 23.2803 160.157 22.9123C160.061 22.5283 159.853 22.3363 159.533 22.3363C159.325 22.3363 159.077 22.4003 158.789 22.5283V27.1603C159.077 27.2243 159.333 27.2563 159.557 27.2563Z" fill="#F4F4F4"/>
</svg>
